<?xml version="1.0" encoding="UTF-8" standalone="no"?>
<!-- Created with Inkscape (http://www.inkscape.org/) -->

<svg
   xmlns:dc="http://purl.org/dc/elements/1.1/"
   xmlns:cc="http://creativecommons.org/ns#"
   xmlns:rdf="http://www.w3.org/1999/02/22-rdf-syntax-ns#"
   xmlns:svg="http://www.w3.org/2000/svg"
   xmlns="http://www.w3.org/2000/svg"
   xmlns:sodipodi="http://sodipodi.sourceforge.net/DTD/sodipodi-0.dtd"
   xmlns:inkscape="http://www.inkscape.org/namespaces/inkscape"
   id="svg2"
   version="1.1"
   inkscape:version="0.48.4 r9939"
   width="642.5"
   height="695"
   xml:space="preserve"
   sodipodi:docname="batman-adv-mesh.svg"><metadata
     id="metadata8"><rdf:RDF><cc:Work
         rdf:about=""><dc:format>image/svg+xml</dc:format><dc:type
           rdf:resource="http://purl.org/dc/dcmitype/StillImage" /><dc:title></dc:title></cc:Work></rdf:RDF></metadata><defs
     id="defs6"><clipPath
       clipPathUnits="userSpaceOnUse"
       id="clipPath18"><path
         d="m 36,520 442.16,0 0,-484 L 36,36 36,520 z"
         id="path20" /></clipPath></defs><sodipodi:namedview
     pagecolor="#ffffff"
     bordercolor="#666666"
     borderopacity="1"
     objecttolerance="10"
     gridtolerance="10"
     guidetolerance="10"
     inkscape:pageopacity="0"
     inkscape:pageshadow="2"
     inkscape:window-width="1362"
     inkscape:window-height="729"
     id="namedview4"
     showgrid="false"
     inkscape:zoom="0.33956835"
     inkscape:cx="321.25"
     inkscape:cy="347.5"
     inkscape:window-x="0"
     inkscape:window-y="37"
     inkscape:window-maximized="0"
     inkscape:current-layer="g16" /><g
     id="g10"
     inkscape:groupmode="layer"
     inkscape:label="foo"
     transform="matrix(1.25,0,0,-1.25,0,695)"><g
       id="g12" /><g
       id="g14"><g
         id="g16"
         clip-path="url(#clipPath18)"><path
           d="m 12.440678,515.28814 442.160002,0 0,-484.000004 -442.160002,0 0,484.000004 z"
           style="fill:#ffffff;fill-opacity:1;fill-rule:nonzero;stroke:#ffffff;stroke-width:1;stroke-linecap:butt;stroke-linejoin:round;stroke-miterlimit:10;stroke-opacity:1;stroke-dasharray:none"
           id="path22"
           inkscape:connector-curvature="0" /><path
           d="m 261.25,498 c 0,-9.941 -33.617,-18 -75.09,-18 -41.469,0 -75.09,8.059 -75.09,18 0,9.941 33.621,18 75.09,18 41.473,0 75.09,-8.059 75.09,-18"
           style="fill:none;stroke:#000000;stroke-opacity:1;stroke-width:1;stroke-linecap:butt;stroke-linejoin:round;stroke-miterlimit:10;stroke-dasharray:none"
           id="path24" /><text
           transform="matrix(1,0,0,-1,136.16016,494.30078)"
           id="text26"><tspan
             style="fill:#000000;fill-opacity:1;fill-rule:nonzero;stroke:none;font-family:Nimbus Roman No9 L;font-variant:normal;font-size:14.000244;writing-mode:lr;-inkscape-font-specification:NimbusRomNo9L-Regu"
             x="0 6.74811761 13.49623522 17.24830061 23.99641822 30.75853607 34.49660122 41.25871907 48.00683668 51.75890207 58.50701968 65.25513728 69.00720268 75.75532028 82.50343789 86.25550328 93.00362089"
             y="0"
             sodipodi:role="line"
             id="tspan28">08:11:96:82:79:3c</tspan></text>
<path
           d="m 399.328,410 c 0,-9.941 -32.758,-18 -73.168,-18 -40.406,0 -73.164,8.059 -73.164,18 0,9.941 32.758,18 73.164,18 40.41,0 73.168,-8.059 73.168,-18"
           style="fill:none;stroke:#000000;stroke-opacity:1;stroke-width:1;stroke-linecap:butt;stroke-linejoin:round;stroke-miterlimit:10;stroke-dasharray:none"
           id="path30" /><text
           transform="matrix(1,0,0,-1,277.66016,406.30078)"
           id="text32"><tspan
             style="fill:#000000;fill-opacity:1;fill-rule:nonzero;stroke:none;font-family:Nimbus Roman No9 L;font-variant:normal;font-size:14.000244;writing-mode:lr;-inkscape-font-specification:NimbusRomNo9L-Regu"
             x="0 6.74811761 13.49623522 17.24830061 23.99641822 30.00252289 33.75458828 40.50270589 47.2508235 51.00288889 55.49696722 62.25908507 66.01115046 72.75926807 79.50738568 83.25945107 90.00756868"
             y="0"
             sodipodi:role="line"
             id="tspan34">00:1e:65:f3:0b:32</tspan></text>
<path
           d="m 212.168,481.027 c 22.394,-13.757 54.894,-33.722 79.465,-48.816"
           style="fill:none;stroke:#000000;stroke-opacity:1;stroke-width:1;stroke-linecap:butt;stroke-linejoin:round;stroke-miterlimit:10;stroke-dasharray:none"
           id="path36" /><path
           d="m 293.605,435.105 6.692,-8.214 -10.356,2.25 3.664,5.964 z"
           style="fill:#000000;fill-opacity:1;fill-rule:nonzero;stroke:#000000;stroke-opacity:1;stroke-width:1;stroke-linecap:butt;stroke-linejoin:round;stroke-miterlimit:10;stroke-dasharray:none"
           id="path38" /><text
           transform="matrix(1,0,0,-1,269.16016,450.30078)"
           id="text40"><tspan
             style="fill:#000000;fill-opacity:1;fill-rule:nonzero;stroke:none;font-family:Nimbus Roman No9 L;font-variant:normal;font-size:14.000244;writing-mode:lr;-inkscape-font-specification:NimbusRomNo9L-Regu"
             x="0 6.74811761 10.500183 17.24830061 23.99641822"
             y="0"
             sodipodi:role="line"
             id="tspan42">1.015</tspan></text>
<path
           d="m 208.352,322 c 0,-9.941 -32.321,-18 -72.192,-18 -39.871,0 -72.191,8.059 -72.191,18 0,9.941 32.32,18 72.191,18 39.871,0 72.192,-8.059 72.192,-18"
           style="fill:none;stroke:#000000;stroke-opacity:1;stroke-width:1;stroke-linecap:butt;stroke-linejoin:round;stroke-miterlimit:10;stroke-dasharray:none"
           id="path44" /><text
           transform="matrix(1,0,0,-1,88.160156,318.30078)"
           id="text46"><tspan
             style="fill:#000000;fill-opacity:1;fill-rule:nonzero;stroke:none;font-family:Nimbus Roman No9 L;font-variant:normal;font-size:14.000244;writing-mode:lr;-inkscape-font-specification:NimbusRomNo9L-Regu"
             x="0 6.74811761 13.49623522 17.24830061 23.99641822 30.00252289 33.75458828 40.50270589 46.50881057 50.24687572 54.75495428 61.50307189 65.25513728 72.00325489 78.00935957 81.76142496 88.50954257"
             y="0"
             sodipodi:role="line"
             id="tspan48">00:0e:2e:f6:6e:5b</tspan></text>
<path
           d="M 181.277,480 C 172.574,449.723 154.336,386.246 143.91,349.961"
           style="fill:none;stroke:#000000;stroke-opacity:1;stroke-width:1;stroke-linecap:butt;stroke-linejoin:round;stroke-miterlimit:10;stroke-dasharray:none"
           id="path50" /><path
           d="m 147.191,348.715 -6.125,-8.645 -0.601,10.578 6.726,-1.933 z"
           style="fill:#000000;fill-opacity:1;fill-rule:nonzero;stroke:#000000;stroke-opacity:1;stroke-width:1;stroke-linecap:butt;stroke-linejoin:round;stroke-miterlimit:10;stroke-dasharray:none"
           id="path52" /><text
           transform="matrix(1,0,0,-1,166.16016,406.30078)"
           id="text54"><tspan
             style="fill:#000000;fill-opacity:1;fill-rule:nonzero;stroke:none;font-family:Nimbus Roman No9 L;font-variant:normal;font-size:14.000244;writing-mode:lr;-inkscape-font-specification:NimbusRomNo9L-Regu"
             x="0 6.74811761 10.500183 17.24830061 23.99641822"
             y="0"
             sodipodi:role="line"
             id="tspan56">1.036</tspan></text>
<path
           d="m 310.328,234 c 0,-9.941 -32.758,-18 -73.168,-18 -40.406,0 -73.164,8.059 -73.164,18 0,9.941 32.758,18 73.164,18 40.41,0 73.168,-8.059 73.168,-18"
           style="fill:none;stroke:#000000;stroke-opacity:1;stroke-width:1;stroke-linecap:butt;stroke-linejoin:round;stroke-miterlimit:10;stroke-dasharray:none"
           id="path58" /><text
           transform="matrix(1,0,0,-1,188.66016,230.30078)"
           id="text60"><tspan
             style="fill:#000000;fill-opacity:1;fill-rule:nonzero;stroke:none;font-family:Nimbus Roman No9 L;font-variant:normal;font-size:14.000244;writing-mode:lr;-inkscape-font-specification:NimbusRomNo9L-Regu"
             x="0 6.74811761 13.49623522 17.24830061 23.99641822 30.75853607 34.49660122 39.00467978 45.75279739 49.50486278 55.49696722 62.25908507 66.01115046 72.75926807 79.50738568 83.25945107 90.00756868"
             y="0"
             sodipodi:role="line"
             id="tspan62">38:59:f9:e8:30:42</tspan></text>
<path
           d="M 154.961,481.434 C 146,476.051 136.637,469.469 129.16,462 74.184,407.051 12.047,369.332 54.16,304 67.945,282.617 128.289,262.629 175.965,249.727"
           style="fill:none;stroke:#000000;stroke-opacity:1;stroke-width:1;stroke-linecap:butt;stroke-linejoin:round;stroke-miterlimit:10;stroke-dasharray:none"
           id="path64" /><path
           d="m 177.156,253.031 8.77,-5.949 -10.567,-0.816 1.797,6.765 z"
           style="fill:#000000;fill-opacity:1;fill-rule:nonzero;stroke:#000000;stroke-opacity:1;stroke-width:1;stroke-linecap:butt;stroke-linejoin:round;stroke-miterlimit:10;stroke-dasharray:none"
           id="path66" /><text
           transform="matrix(1,0,0,-1,47.160156,362.30078)"
           id="text68"><tspan
             style="fill:#000000;fill-opacity:1;fill-rule:nonzero;stroke:none;font-family:Nimbus Roman No9 L;font-variant:normal;font-size:14.000244;writing-mode:lr;-inkscape-font-specification:NimbusRomNo9L-Regu"
             x="0 6.74811761 10.500183 17.24830061 23.99641822"
             y="0"
             sodipodi:role="line"
             id="tspan70">1.000</tspan></text>
<path
           d="M 321.199,428.383 C 317.203,439.457 310.512,453.309 300.16,462 288,472.211 272.895,479.449 257.699,484.574"
           style="fill:none;stroke:#000000;stroke-opacity:1;stroke-width:1;stroke-linecap:butt;stroke-linejoin:round;stroke-miterlimit:10;stroke-dasharray:none"
           id="path72" /><path
           d="m 256.254,481.355 -8.524,6.29 10.586,0.398 -2.062,-6.688 z"
           style="fill:#000000;fill-opacity:1;fill-rule:nonzero;stroke:#000000;stroke-opacity:1;stroke-width:1;stroke-linecap:butt;stroke-linejoin:round;stroke-miterlimit:10;stroke-dasharray:none"
           id="path74" /><text
           transform="matrix(1,0,0,-1,313.16016,450.30078)"
           id="text76"><tspan
             style="fill:#000000;fill-opacity:1;fill-rule:nonzero;stroke:none;font-family:Nimbus Roman No9 L;font-variant:normal;font-size:14.000244;writing-mode:lr;-inkscape-font-specification:NimbusRomNo9L-Regu"
             x="0 6.74811761 10.500183 17.24830061 23.99641822"
             y="0"
             sodipodi:role="line"
             id="tspan78">1.094</tspan></text>
<path
           d="M 256.711,404.074 C 228.602,399.434 196.996,390.621 172.16,374 c -9.32,-6.238 -16.988,-15.77 -22.816,-24.91"
           style="fill:none;stroke:#000000;stroke-opacity:1;stroke-width:1;stroke-linecap:butt;stroke-linejoin:round;stroke-miterlimit:10;stroke-dasharray:none"
           id="path80" /><path
           d="m 152.215,347.07 -8.082,-6.855 2.043,10.398 6.039,-3.543 z"
           style="fill:#000000;fill-opacity:1;fill-rule:nonzero;stroke:#000000;stroke-opacity:1;stroke-width:1;stroke-linecap:butt;stroke-linejoin:round;stroke-miterlimit:10;stroke-dasharray:none"
           id="path82" /><text
           transform="matrix(1,0,0,-1,172.16016,362.30078)"
           id="text84"><tspan
             style="fill:#000000;fill-opacity:1;fill-rule:nonzero;stroke:none;font-family:Nimbus Roman No9 L;font-variant:normal;font-size:14.000244;writing-mode:lr;-inkscape-font-specification:NimbusRomNo9L-Regu"
             x="0 6.74811761 10.500183 17.24830061 23.99641822"
             y="0"
             sodipodi:role="line"
             id="tspan86">1.089</tspan></text>
<path
           d="m 332.117,391.758 c 1.653,-5.594 3.219,-11.875 4.043,-17.758 4.457,-31.812 -4.387,-40.902 -18,-70 -7.523,-16.09 -8.281,-21.602 -21,-34 -5.461,-5.324 -11.887,-10.156 -18.465,-14.41"
           style="fill:none;stroke:#000000;stroke-opacity:1;stroke-width:1;stroke-linecap:butt;stroke-linejoin:round;stroke-miterlimit:10;stroke-dasharray:none"
           id="path88" /><path
           d="m 280.07,252.332 -10.367,-2.18 6.746,8.168 3.621,-5.988 z"
           style="fill:#000000;fill-opacity:1;fill-rule:nonzero;stroke:#000000;stroke-opacity:1;stroke-width:1;stroke-linecap:butt;stroke-linejoin:round;stroke-miterlimit:10;stroke-dasharray:none"
           id="path90" /><path
           d="m 128.898,339.984 c -8,21.293 -18.289,58.571 -6.738,88.016 7.035,17.926 21.16,33.973 34.352,46.07"
           style="fill:none;stroke:#000000;stroke-opacity:1;stroke-width:1;stroke-linecap:butt;stroke-linejoin:round;stroke-miterlimit:10;stroke-dasharray:none"
           id="path110" /><path
           d="m 154.281,476.77 9.832,3.953 -5.218,-9.223 -4.614,5.27 z"
           style="fill:#000000;fill-opacity:1;fill-rule:nonzero;stroke:#000000;stroke-opacity:1;stroke-width:1;stroke-linecap:butt;stroke-linejoin:round;stroke-miterlimit:10;stroke-dasharray:none"
           id="path112" /><text
           transform="matrix(1,0,0,-1,122.16016,406.30078)"
           id="text114"><tspan
             style="fill:#000000;fill-opacity:1;fill-rule:nonzero;stroke:none;font-family:Nimbus Roman No9 L;font-variant:normal;font-size:14.000244;writing-mode:lr;-inkscape-font-specification:NimbusRomNo9L-Regu"
             x="0 6.74811761 10.500183 17.24830061 23.99641822"
             y="0"
             sodipodi:role="line"
             id="tspan116">1.049</tspan></text>
<path
           d="m 189.797,334.152 c 21.578,5.59 46.289,13.43 67.363,23.848 4.449,2.199 22.949,15.918 39.672,28.57"
           style="fill:none;stroke:#000000;stroke-opacity:1;stroke-width:1;stroke-linecap:butt;stroke-linejoin:round;stroke-miterlimit:10;stroke-dasharray:none"
           id="path118" /><path
           d="m 294.75,389.383 10.082,3.262 -5.848,-8.836 -4.234,5.574 z"
           style="fill:#000000;fill-opacity:1;fill-rule:nonzero;stroke:#000000;stroke-opacity:1;stroke-width:1;stroke-linecap:butt;stroke-linejoin:round;stroke-miterlimit:10;stroke-dasharray:none"
           id="path120" /><text
           transform="matrix(1,0,0,-1,280.16016,362.30078)"
           id="text122"><tspan
             style="fill:#000000;fill-opacity:1;fill-rule:nonzero;stroke:none;font-family:Nimbus Roman No9 L;font-variant:normal;font-size:14.000244;writing-mode:lr;-inkscape-font-specification:NimbusRomNo9L-Regu"
             x="0 6.74811761 10.500183 17.24830061 23.99641822"
             y="0"
             sodipodi:role="line"
             id="tspan124">1.032</tspan></text>
<path
           d="m 154.004,304.102 c 10.844,-10.11 25.082,-23.09 38.156,-34.102 4.871,-4.102 10.133,-8.348 15.285,-12.414"
           style="fill:none;stroke:#000000;stroke-opacity:1;stroke-width:1;stroke-linecap:butt;stroke-linejoin:round;stroke-miterlimit:10;stroke-dasharray:none"
           id="path126" /><path
           d="m 209.645,260.312 5.73,-8.914 -10.039,3.395 4.309,5.519 z"
           style="fill:#000000;fill-opacity:1;fill-rule:nonzero;stroke:#000000;stroke-opacity:1;stroke-width:1;stroke-linecap:butt;stroke-linejoin:round;stroke-miterlimit:10;stroke-dasharray:none"
           id="path128" /><text
           transform="matrix(1,0,0,-1,192.16016,274.30078)"
           id="text130"><tspan
             style="fill:#000000;fill-opacity:1;fill-rule:nonzero;stroke:none;font-family:Nimbus Roman No9 L;font-variant:normal;font-size:14.000244;writing-mode:lr;-inkscape-font-specification:NimbusRomNo9L-Regu"
             x="0 6.74811761 10.500183 17.24830061 23.99641822"
             y="0"
             sodipodi:role="line"
             id="tspan132">1.015</tspan></text>
<path
           d="M 234.152,252.074 C 228.176,285.77 214.25,363.184 201.16,428 c -2.805,13.895 -6.137,29.312 -8.945,42.047"
           style="fill:none;stroke:#000000;stroke-opacity:1;stroke-width:1;stroke-linecap:butt;stroke-linejoin:round;stroke-miterlimit:10;stroke-dasharray:none"
           id="path142" /><path
           d="m 188.754,469.496 1.246,10.52 5.586,-9.004 -6.832,-1.516 z"
           style="fill:#000000;fill-opacity:1;fill-rule:nonzero;stroke:#000000;stroke-opacity:1;stroke-width:1;stroke-linecap:butt;stroke-linejoin:round;stroke-miterlimit:10;stroke-dasharray:none"
           id="path144" /><text
           transform="matrix(1,0,0,-1,215.16016,362.30078)"
           id="text146"><tspan
             style="fill:#000000;fill-opacity:1;fill-rule:nonzero;stroke:none;font-family:Nimbus Roman No9 L;font-variant:normal;font-size:14.000244;writing-mode:lr;-inkscape-font-specification:NimbusRomNo9L-Regu"
             x="0 6.74811761 10.500183 17.24830061 23.99641822"
             y="0"
             sodipodi:role="line"
             id="tspan148">1.128</tspan></text>
<path
           d="m 244.07,252.23 c 11.293,27.926 33.055,80.692 39.09,87.77 9.602,11.258 19.133,6.156 28,18 5.137,6.855 8.52,15.445 10.746,23.609"
           style="fill:none;stroke:#000000;stroke-opacity:1;stroke-width:1;stroke-linecap:butt;stroke-linejoin:round;stroke-miterlimit:10;stroke-dasharray:none"
           id="path150" /><path
           d="m 318.535,382.574 5.617,8.985 1.211,-10.524 -6.828,1.539 z"
           style="fill:#000000;fill-opacity:1;fill-rule:nonzero;stroke:#000000;stroke-opacity:1;stroke-width:1;stroke-linecap:butt;stroke-linejoin:round;stroke-miterlimit:10;stroke-dasharray:none"
           id="path152" /><text
           transform="matrix(1,0,0,-1,283.16016,318.30078)"
           id="text154"><tspan
             style="fill:#000000;fill-opacity:1;fill-rule:nonzero;stroke:none;font-family:Nimbus Roman No9 L;font-variant:normal;font-size:14.000244;writing-mode:lr;-inkscape-font-specification:NimbusRomNo9L-Regu"
             x="0 6.74811761 10.500183 17.24830061 23.99641822"
             y="0"
             sodipodi:role="line"
             id="tspan156">1.099</tspan></text>
<path
           d="m 176.477,244.109 c -14.789,5.18 -29.016,13.27 -38.317,25.891 -4.953,6.723 -6.531,15.402 -6.547,23.691"
           style="fill:none;stroke:#000000;stroke-opacity:1;stroke-width:1;stroke-linecap:butt;stroke-linejoin:round;stroke-miterlimit:10;stroke-dasharray:none"
           id="path158" /><path
           d="m 128.129,294.062 4.164,9.743 2.82,-10.211 -6.984,0.468 z"
           style="fill:#000000;fill-opacity:1;fill-rule:nonzero;stroke:#000000;stroke-opacity:1;stroke-width:1;stroke-linecap:butt;stroke-linejoin:round;stroke-miterlimit:10;stroke-dasharray:none"
           id="path160" /><text
           transform="matrix(1,0,0,-1,138.16016,274.30078)"
           id="text162"><tspan
             style="fill:#000000;fill-opacity:1;fill-rule:nonzero;stroke:none;font-family:Nimbus Roman No9 L;font-variant:normal;font-size:14.000244;writing-mode:lr;-inkscape-font-specification:NimbusRomNo9L-Regu"
             x="0 6.74811761 10.500183 17.24830061 23.99641822"
             y="0"
             sodipodi:role="line"
             id="tspan164">1.032</tspan></text>
</g></g></g></svg>